<?xml version="1.0" encoding="utf-8"?>

<!-- Uploaded to: SVG Repo, www.svgrepo.com, Generator: SVG Repo Mixer Tools -->
<svg version="1.1" id="Icons" xmlns="http://www.w3.org/2000/svg" xmlns:xlink="http://www.w3.org/1999/xlink" 
	 viewBox="0 0 32 32" xml:space="preserve">
<style type="text/css">
	.st0{fill:none;stroke:#000000;stroke-width:2;stroke-linecap:round;stroke-linejoin:round;stroke-miterlimit:10;}
	.st1{fill:none;stroke:#000000;stroke-width:2;stroke-linejoin:round;stroke-miterlimit:10;}
</style>
<path class="st0" d="M23.8,4H18v0.3c2.3,0.6,4,2.3,4,4.2c0,2.5-2.7,4.5-6,4.5s-6-2-6-4.5c0-2,1.7-3.6,4-4.2V4H8.3C6.5,4,5,5.5,5,7.3
	V17c0,6.1,4.9,11,11,11s11-4.9,11-11V7.3C27,5.5,25.5,4,23.8,4z"/>
<path class="st0" d="M16,15.9L16,15.9c0.6,1.7,2.2,2.9,4,2.9h0l0,0c-1.5,1.1-2.1,3-1.5,4.7v0l0,0c-1.5-1.1-3.5-1.1-4.9,0l0,0l0,0
	c0.6-1.7-0.1-3.6-1.5-4.7l0,0h0C13.8,18.8,15.4,17.6,16,15.9L16,15.9z"/>
</svg>