<?xml version="1.0" encoding="iso-8859-1"?>
<!-- Uploaded to: SVG Repo, www.svgrepo.com, Generator: SVG Repo Mixer Tools -->
<!DOCTYPE svg PUBLIC "-//W3C//DTD SVG 1.1//EN" "http://www.w3.org/Graphics/SVG/1.1/DTD/svg11.dtd">
<svg fill="#000000" height="800px" width="800px" version="1.1" id="Capa_1" xmlns="http://www.w3.org/2000/svg" xmlns:xlink="http://www.w3.org/1999/xlink" 
	 viewBox="0 0 345.8 345.8" xml:space="preserve">
<path d="M345.8,322.542c0,4.418-3.582,8-8,8H8c-4.418,0-8-3.582-8-8s3.582-8,8-8h329.8C342.218,314.542,345.8,318.124,345.8,322.542
	z M1.5,167.318v-38.534c0-4.418,3.582-8,8-8h23.572L2.56,67.595c-2.198-3.833-0.874-8.721,2.959-10.92
	c3.831-2.198,8.722-0.874,10.92,2.959l35.078,61.15h189.192c4.418,0,8,3.582,8,8v9.417c0,4.418-3.582,8-8,8s-8-3.582-8-8v-1.417
	H60.695l31.977,55.745c1.973-0.449,3.995-0.689,6.022-0.689c9.75,0,18.818,5.219,23.667,13.62l7.996,13.841
	c7.517,13.026,3.04,29.735-9.979,37.25c-4.125,2.381-8.822,3.639-13.583,3.639c-9.749,0-18.817-5.218-23.667-13.617l-7.996-13.847
	c-6.126-10.619-4.278-23.686,3.668-32.225l-36.551-63.717H17.5v30.534c0,59.334,48.271,107.605,107.603,107.605
	c18.203,0,36.225-4.689,52.117-13.56c3.858-2.154,8.731-0.772,10.885,3.086c2.153,3.858,0.772,8.731-3.086,10.885
	c-18.271,10.198-38.989,15.589-59.916,15.589C56.948,290.923,1.5,235.474,1.5,167.318z M98.695,207.839
	c-1.82,0-3.559,0.427-5.168,1.268c-0.145,0.076-0.292,0.155-0.438,0.239c-5.354,3.092-7.205,9.998-4.099,15.381l7.995,13.845
	c2,3.465,5.76,5.618,9.811,5.618c1.958,0,3.889-0.517,5.585-1.497c5.378-3.105,7.228-10.01,4.122-15.392l-7.996-13.841
	C106.504,209.992,102.746,207.839,98.695,207.839z M163.592,194.374c0-4.418-3.582-8-8-8h-1.103c-4.418,0-8,3.582-8,8s3.582,8,8,8
	h1.103C160.011,202.374,163.592,198.793,163.592,194.374z M161.386,247.036h1.104c4.418,0,8-3.582,8-8s-3.582-8-8-8h-1.104
	c-4.418,0-8,3.582-8,8S156.967,247.036,161.386,247.036z M47.732,196.095c-4.418,0-8,3.582-8,8s3.582,8,8,8h1.104
	c4.418,0,8-3.582,8-8s-3.582-8-8-8H47.732z M345.8,178.313v44.745c0,4.418-3.582,8-8,8h-23.585v1.371
	c0,32.254-26.24,58.494-58.494,58.494c-32.253,0-58.492-26.24-58.492-58.494v-69.236c0-4.418,3.582-8,8-8h100.986
	c4.418,0,8,3.582,8,8v7.12H337.8C342.218,170.313,345.8,173.895,345.8,178.313z M298.215,171.193h-84.986v61.236
	c0,23.431,19.062,42.494,42.492,42.494c23.431,0,42.494-19.063,42.494-42.494V171.193z M329.8,186.313h-15.585v28.745H329.8V186.313
	z M278.133,123.168c-2.89,3.342-2.524,8.394,0.818,11.284c1.513,1.308,3.375,1.949,5.229,1.949c2.242,0,4.473-0.938,6.054-2.767
	c12.271-14.189,10.187-39.69,0.542-54.606c-6.664-10.307-6.932-27.676-0.541-35.066c2.89-3.342,2.523-8.394-0.818-11.284
	c-3.342-2.89-8.394-2.524-11.284,0.818c-12.088,13.979-10.12,39.794-0.792,54.22C284.258,98.412,284.643,115.641,278.133,123.168z
	 M238.6,100.289c0.705,3.861,4.071,6.565,7.861,6.565c0.477,0,0.96-0.043,1.446-0.131c4.346-0.793,7.227-4.96,6.434-9.307
	c-1.247-6.833-3.684-13.192-7.046-18.388c-6.664-10.306-6.932-27.675-0.541-35.066c2.89-3.342,2.523-8.394-0.819-11.284
	c-3.342-2.89-8.394-2.523-11.284,0.819c-12.087,13.98-10.119,39.795-0.791,54.221C236.057,91.114,237.74,95.578,238.6,100.289z
	 M49.694,79.91c0.331,4.406,4.168,7.709,8.577,7.378c4.406-0.331,7.709-4.171,7.378-8.577l-0.329-4.387
	c11.39-5.781,31.633-4.739,44.619,2.88c6.482,3.806,14.508,6.475,23.209,7.719c0.384,0.055,0.765,0.082,1.143,0.082
	c3.916,0,7.339-2.879,7.909-6.869c0.625-4.374-2.414-8.426-6.787-9.052c-6.565-0.939-12.735-2.955-17.375-5.678
	c-14.369-8.431-36.798-11.63-53.977-5.85l-1.975-26.299h103.312l-4.579,60.96c-0.331,4.406,2.972,8.246,7.378,8.577
	c0.204,0.015,0.406,0.023,0.607,0.023c4.146,0,7.654-3.199,7.969-7.401l5.225-69.559c0.167-2.22-0.599-4.408-2.113-6.04
	c-1.514-1.632-3.639-2.559-5.865-2.559H53.463c-2.226,0-4.351,0.927-5.865,2.559c-1.514,1.632-2.279,3.82-2.113,6.04L49.694,79.91z"
	/>
</svg>